<svg viewBox="-8 -2 32 24" xmlns="http://www.w3.org/2000/svg" width="24" height="auto" fill="white">
  <g transform="scale(0.1395) translate(-358, -350)">
    <polygon points="358.4,408.2 326.2,408.2 310.1,436.1 326.2,464 358.4,464 374.5,436.1"/>
    <polygon points="408.7,436.7 376.5,436.7 360.4,464.6 376.5,492.5 408.7,492.5 424.8,464.6"/>
    <polygon points="408.7,379 376.5,379 360.4,406.9 376.5,434.8 408.7,434.8 424.8,406.9"/>
    <polygon points="458.8,408.2 426.6,408.2 410.5,436.1 426.6,464 458.8,464 474.9,436.1"/>
    <polygon points="509.7,436.7 477.5,436.7 461.4,464.6 477.5,492.5 509.7,492.5 525.8,464.6"/>
    <polygon points="458.8,350.2 426.6,350.2 410.5,378.1 426.6,405.9 458.8,405.9 474.9,378.1"/>
  </g>
</svg>
